<svg xmlns="http://www.w3.org/2000/svg" width="76" height="76" viewBox="0 0 76 76"><g fill="none" fill-rule="evenodd"><path fill="#FDC10A" d="M75.93 46.33a1.8 1.8 0 0 0-.2-.53l-6.37-12.55 2.19-13.9a2.1 2.1 0 0 0-1.43-2.33l-13.38-4.37-8.28-11.37A2.1 2.1 0 0 0 45.8.64L33.25 7l-13.9-2.18a2.11 2.11 0 0 0-2.33 1.43l-4.37 13.38-11.37 8.28a2.1 2.1 0 0 0-.64 2.66L7 43.13l-2.18 13.9a2.1 2.1 0 0 0 1.43 2.33l13.38 4.36 8.28 11.38c.61.84 1.74 1.1 2.66.64l12.55-6.38 13.9 2.19a2.1 2.1 0 0 0 2.33-1.43l4.36-13.38 11.38-8.28c.68-.5.99-1.34.83-2.13"/><path fill="#FFF" d="M31.89 36.6l-1.64 2.24 7.24 5.2 11.74-15.97-2.26-1.62L36.88 40.2l-4.99-3.58zm17.36-.16a11.23 11.23 0 0 1-9.31 12.81 11.23 11.23 0 0 1-12.81-9.31 11.23 11.23 0 0 1 12.41-12.88l1.87-2.56a17.04 17.04 0 0 0-5.41-.14 14.04 14.04 0 0 0-11.64 16.02 14.04 14.04 0 0 0 16.02 11.64A14.04 14.04 0 0 0 52.02 36l-2.77.44z"/></g></svg>
