<svg data-name="Layer 1" xmlns="http://www.w3.org/2000/svg" viewBox="0 0 116 41.6"><path d="M24.6 6.7h-4.3l-.3 5-.4 4A22.2 22.2 0 0 1 19 19a9.5 9.5 0 0 1-1 2.4 4.5 4.5 0 0 1-1 1.1 4.8 4.8 0 0 1-1 .7 4.5 4.5 0 0 1-1 .4 5.4 5.4 0 0 1-1 0 5.2 5.2 0 0 1-1.2 0 4.4 4.4 0 0 1-.8-.3l.4-3.4a2.2 2.2 0 0 0 .3 0h.4a2 2 0 0 0 1-.2 2 2 0 0 0 .7-.8 6 6 0 0 0 .6-1.8A26.3 26.3 0 0 0 16 14q.3-2 .4-4.6t.2-6.2h12v20.3h-4zm15.7 10.1l.1-2-1.3 2-5.2 6.6h-2.3V8.9h3.7v7l-.2 1.9h.1l1.2-2 5.2-6.9H44v14.5h-3.8v-6.6zm17.9-4.5h-4v11h-3.9v-11h-4.1V8.9h12v3.4z" fill="#2b2523"/><path d="M60.7 3.4q1.2-.3 2.7-.4t2.9-.1a18.9 18.9 0 0 1 3 .2 7.5 7.5 0 0 1 2.7 1 5.7 5.7 0 0 1 2 2 6.8 6.8 0 0 1 .8 3.5 7 7 0 0 1-.7 3.2 6.1 6.1 0 0 1-1.8 2.2 7 7 0 0 1-2.5 1.2 11.1 11.1 0 0 1-2.9.4h-1.8l-.5-.1v7h-4v-20zm5.9 2.9h-2V13h1.8a8.3 8.3 0 0 0 1.5-.1 3.8 3.8 0 0 0 1.4-.6 2.8 2.8 0 0 0 1-1 4 4 0 0 0 .3-1.9 3.2 3.2 0 0 0-.3-1.6 2.8 2.8 0 0 0-1-1 3.5 3.5 0 0 0-1.2-.5 7.5 7.5 0 0 0-1.5-.1m21 15.9a7.4 7.4 0 0 1-2.3 1.2 10.3 10.3 0 0 1-3.2.5q-3.5 0-5-2a8.8 8.8 0 0 1-1.7-5.6q0-3.8 1.8-5.7a6.7 6.7 0 0 1 5.1-2 8 8 0 0 1 2.2.4 5 5 0 0 1 1.8 1 4.7 4.7 0 0 1 1.3 1.8 7 7 0 0 1 .5 2.8 12.6 12.6 0 0 1 0 1.3l-.3 1.4h-8.7a4.3 4.3 0 0 0 1 2.7 3.6 3.6 0 0 0 2.8 1 6.7 6.7 0 0 0 2.1-.5 15 15 0 0 0 1.5-.6zm-5.3-10.6a2.6 2.6 0 0 0-2.2.9 4.1 4.1 0 0 0-.9 2.3h5.4a3.7 3.7 0 0 0-.4-2.3 2.2 2.2 0 0 0-2-1m18.1.3a12.5 12.5 0 0 0-2-.2c-2.6 0-4.3 1.5-4.3 4.7 0 3 1.3 4.6 4 4.6l2.6-.2.5 2.6a12.8 12.8 0 0 1-3.8.5c-5.2 0-7.2-3.8-7.2-7.7s2.3-7.4 7.5-7.4a13.6 13.6 0 0 1 3.3.4zm8.1-.7a2.1 2.1 0 1 1-2.2-2.2 2.1 2.1 0 0 1 2.2 2.1m0 10.6a2.1 2.1 0 1 1-2.2-2.2 2.1 2.1 0 0 1 2.2 2.2m-94 15a2.2 2.2 0 0 1-1.7-.7 3 3 0 0 1 0-3.8 2.3 2.3 0 0 1 1.8-.6 2.3 2.3 0 0 1 1.7.6 2.6 2.6 0 0 1 .6 1.9 2.6 2.6 0 0 1-.6 1.8 2.3 2.3 0 0 1-1.8.8zm0-.7q1.5 0 1.5-2T14.5 32Q13 32 13 33.9t1.4 1.9zm3.4 1.7v-1.9h.4A5.5 5.5 0 0 0 19 34a8 8 0 0 0 .3-2v-.5h3.2v4.2h.9v1.8h-1v-1h-3.7v1zm1.4-1.9h2.4v-3.5H20v.1a7 7 0 0 1-.3 1.8 7 7 0 0 1-.6 1.6zm5.6.7v-4.8h.8V35l2.3-3.7h1v5H28v-3.8l-2.3 3.7zm6 0v-4.8h.9v2h2.2v-2h1v4.8h-1v-2.2h-2.2v2.2zm9 0v-4.8h1v2a1.7 1.7 0 0 0 .7 0 2.9 2.9 0 0 0 .6-.8l.1-.3a2.5 2.5 0 0 1 .7-.8 1.6 1.6 0 0 1 .8-.2v.7a.7.7 0 0 0-.5.1 2.3 2.3 0 0 0-.4.6v.2a3.4 3.4 0 0 1-.4.6 1.6 1.6 0 0 1-.5.3 1.3 1.3 0 0 1 .5.2 4.7 4.7 0 0 1 .5.7l.2.3.2.3.2.3.3.5.2.2h-1l-.1-.2-.7-.9-.8-1h-.6v2zm4.7 0v-.6a1 1 0 0 0 .9-.6 3.5 3.5 0 0 0 .2-1.6v-2.1H49v5h-1v-4.2h-1.5v1.6a3.4 3.4 0 0 1-.6 1.9 1.7 1.7 0 0 1-1.4.6zm6.3 0v-4.8h.9V35l2.3-3.7h1v5h-1v-3.8l-2.3 3.7zm6 0v-4.8h1v2a1.7 1.7 0 0 0 .7 0 2.9 2.9 0 0 0 .6-.8l.1-.3a2.5 2.5 0 0 1 .7-.8 1.6 1.6 0 0 1 .8-.2v.7a.7.7 0 0 0-.5.1 2.3 2.3 0 0 0-.4.6v.2a3.4 3.4 0 0 1-.4.6 1.6 1.6 0 0 1-.5.3 1.3 1.3 0 0 1 .5.2 4.7 4.7 0 0 1 .5.7l.2.3.2.3.2.3.3.5.2.2h-1l-.1-.2-.7-.9-.8-1h-.6v2z" fill="#e84e1b"/><path d="M65 37.5v-1.9h.5a5.5 5.5 0 0 0 .7-1.7 8 8 0 0 0 .3-2v-.4h3.2v4.1h.9v1.9h-.9v-1.2h-3.8v1.2zm1.4-1.9h2.4v-3.5h-1.5v.1a7 7 0 0 1-1 3.4zm7.5.9a2.2 2.2 0 0 1-1.8-.7 3 3 0 0 1 0-3.8 2.5 2.5 0 0 1 3.5 0 3 3 0 0 1 0 3.8 2.3 2.3 0 0 1-1.7.7zm0-.7q1.4 0 1.4-2T73.9 32q-1.4 0-1.4 1.9t1.4 1.9zm6.8.5v-4.8h.9v2a1.7 1.7 0 0 0 .8 0 3 3 0 0 0 .6-.8v-.3a2.5 2.5 0 0 1 .7-.8 1.6 1.6 0 0 1 .9-.2v.7a.7.7 0 0 0-.5.1 2.3 2.3 0 0 0-.4.6l-.1.2a3.4 3.4 0 0 1-.4.6 1.6 1.6 0 0 1-.5.3 1.3 1.3 0 0 1 .5.2 4.7 4.7 0 0 1 .5.7l.2.3.2.3.2.3.4.5.1.2h-1l-.1-.2-.7-.9-.8-1h-.6v2.1zm5.3 0v-4.8h.9v2h2.3v-2h.8v4.8h-1v-2.2h-2v2.2zm5.9 0v-4.8h.8V35l2.3-3.7h1v5h-1v-3.8l-2.3 3.7zm5.9 0v-4.8h3.6v.7h-2.7v4.1z" fill="#12100b"/></svg>
