<svg id="Layer_1" data-name="Layer 1" xmlns="http://www.w3.org/2000/svg" viewBox="0 0 137.4 46.7"><defs><style>.cls-1,.cls-2{fill:none}.cls-1{clip-rule:evenodd}</style><clipPath id="clip-path"><path class="cls-1" d="M-751.9 26a3.2 3.2 0 0 0 3.7-2.8v-.5l6.4 2.6-3.4 8.4-6.4-2.6a4.8 4.8 0 0 0 1.3-1.7l1.2-3a2.7 2.7 0 0 1-1.7 0 2.4 2.4 0 0 1-1-.4z"/></clipPath><clipPath id="clip-path-2"><path class="cls-1" d="M-698 40.2l40.3-.1v13l-40.3.1v-13z"/></clipPath><clipPath id="clip-path-3"><path class="cls-1" d="M-657.8 15.4a5 5 0 0 0-4.8-4.2h-10.7c2.7 0 3.3 2.3 3.3 5.1v15.8c.1 0 .3 0 .4-.2a28.4 28.4 0 0 0 12-7.3v-9.1h-.1z"/></clipPath><clipPath id="clip-path-4"><path class="cls-1" d="M-686 11.2h-7a5 5 0 0 0-5 4.2V25a28.4 28.4 0 0 0 12 7l.4.1V16.3c0-2.8.6-5.1 3.3-5.1h-3.8z"/></clipPath><clipPath id="clip-path-5"><path class="cls-1" d="M-677.9 45.6h-20v-21h12.3l7.7 21z"/></clipPath><clipPath id="clip-path-6"><path class="cls-1" d="M-657.6 45.6h-20l4.6-21h15.4v21z"/></clipPath><clipPath id="clip-path-7"><path class="cls-1" d="M-678 5a6.3 6.3 0 0 0-3 .7h6a5.8 5.8 0 0 0-3-.8"/></clipPath><clipPath id="clip-path-8"><path class="cls-1" d="M-676.3 7h-4.2l-2.2-.7v6.5c0 2.4 2.4 4.3 4.7 4.3s4.7-2 4.7-4.3V6.3z"/></clipPath><clipPath id="clip-path-9"><path class="cls-1" d="M-684.1-40a5 5 0 0 0-2.2.6 5.2 5.2 0 0 1 3 4.7h4.4a5.3 5.3 0 0 0-5.2-5.2"/></clipPath><clipPath id="clip-path-10"><path class="cls-1" d="M-673.5-42.2a5.3 5.3 0 0 1 2.6.6 6.3 6.3 0 0 0-3.5 5.7h-5.4a6.3 6.3 0 0 1 6.3-6.3"/></clipPath><clipPath id="clip-path-11"><path class="cls-2" d="M-793.9-50.1h245.8V54.6h-245.8z"/></clipPath><clipPath id="clip-path-12"><path class="cls-2" d="M-171.9 12.9h22v22h-22z"/></clipPath><clipPath id="clip-path-13"><path class="cls-2" d="M-1194.9-43.1h31v31h-31z"/></clipPath></defs><path d="M9.3 14.3h3.3l6.9 8.3 7-8.3h3.2v17.5h-3V19l-7.2 8.2h-.1l-7-8.2v12.7h-3zm25.8 0H48v2.8h-9.8v4.5h8v2.7h-8V29h10v2.7h-13zM51 23a8.9 8.9 0 0 1 9-9 9.4 9.4 0 0 1 6.7 2.4l-2 2.4a6.8 6.8 0 0 0-4.8-2 6 6 0 0 0-5.7 6.3c0 3.6 2.4 6.2 6 6.2a7.1 7.1 0 0 0 4.1-1.3v-3.3H60V22h7.4v7.3a11.1 11.1 0 0 1-7.3 2.8 8.7 8.7 0 0 1-9-9zm19.5 0a9.1 9.1 0 1 1 9.1 9 8.9 8.9 0 0 1-9-9zm15 0a6 6 0 0 0-6-6.1 5.9 5.9 0 0 0-5.8 6.2 6 6 0 0 0 6 6.2 5.9 5.9 0 0 0 5.8-6.2zm6.2 0a8.8 8.8 0 0 1 9-9 9.5 9.5 0 0 1 6.7 2.4l-2 2.3a6.9 6.9 0 0 0-4.8-1.9 5.8 5.8 0 0 0-5.7 6.1 5.8 5.8 0 0 0 6 6.1 7.2 7.2 0 0 0 4.1-1.3v-3.2h-4.4V22h7.4v7.2a11.2 11.2 0 0 1-7.3 2.7c-5.4 0-9-3.8-9-8.9zm19.5 0a9.1 9.1 0 1 1 9 8.8 8.9 8.9 0 0 1-9-8.9zm15 0a6 6 0 0 0-6-6.2 5.8 5.8 0 0 0-5.8 6.1 6 6 0 0 0 6 6.1 5.8 5.8 0 0 0 5.8-6z"/></svg>
