<svg id="Layer_1" data-name="Layer 1" xmlns="http://www.w3.org/2000/svg" viewBox="0 0 126 38.8"><defs><style>.cls-1{fill:#1d1d1b;fill-rule:evenodd}</style></defs><g id="_Group_" data-name="&lt;Group&gt;"><g id="_Group_2" data-name="&lt;Group&gt;"><path id="_Path_" data-name="&lt;Path&gt;" class="cls-1" d="M28 10l-1.8 3 3 5.2h3.6L28 10z"/><path id="_Path_2" data-name="&lt;Path&gt;" class="cls-1" d="M17.7 9.6l1.8 3.1h6.1l1.8-3.1h-9.7z"/><path id="_Path_3" data-name="&lt;Path&gt;" class="cls-1" d="M16 18.9h-3.5l4.8 8.3L19 24l-3-5.2z"/><path id="_Path_4" data-name="&lt;Path&gt;" class="cls-1" d="M25.5 24.4h-5.9l-1.8 3.1h9.5l-1.8-3.1z"/><path id="_Path_5" data-name="&lt;Path&gt;" class="cls-1" d="M16 18.2l3-5-1.8-3.1-4.7 8.1H16z"/><path id="_Path_6" data-name="&lt;Path&gt;" class="cls-1" d="M15.5 30.3L8.9 18.9H5.3l8.4 14.5 1.8-3.1z"/><path id="_Path_7" data-name="&lt;Path&gt;" class="cls-1" d="M8.9 18.2L15.4 7l-1.8-3.1-8.3 14.4h3.6z"/><path id="_Path_8" data-name="&lt;Path&gt;" class="cls-1" d="M31.6 3.7l-1.8 3.1 6.6 11.4H40L31.6 3.7z"/><path id="_Path_9" data-name="&lt;Path&gt;" class="cls-1" d="M14 3.4l1.9 3h13.3l1.8-3H14z"/><path id="_Path_10" data-name="&lt;Path&gt;" class="cls-1" d="M36.4 18.9L35 21.2h3.6L40 19h-3.6z"/><path id="_Path_11" data-name="&lt;Path&gt;" class="cls-1" d="M38 27.5l5.4-3.1H29.6l3.2-5.5h-3.6L26 24.2l2 3.3h10z"/><path id="_Path_12" data-name="&lt;Path&gt;" class="cls-1" d="M38.3 28L35 33.9h3.6l3.7-6.3 1.4-2.6-5.4 3.2z"/><path id="_Path_13" data-name="&lt;Path&gt;" class="cls-1" d="M31.4 30.6H16l-1.8 3.2h17.2l1.8-3.2h-1.8z"/></g><g id="_Group_3" data-name="&lt;Group&gt;"><path id="_Path_14" data-name="&lt;Path&gt;" class="cls-1" d="M71.5 9.2l-1-.2V7.2H75V9l-1.1.2V14a.8.8 0 0 0 .7.8h.6a1.4 1.4 0 0 0 1.5-1.5V9.2L75.6 9V7.2h4.6V9l-1.2.2v5.7l1.1.2v1.7h-2.8l-.4-.5a3 3 0 0 1-1.7.5h-.8a2.8 2.8 0 0 1-2.8-2.7z"/><path id="_Path_15" data-name="&lt;Path&gt;" class="cls-1" d="M58.8 15l-1.1.1V17h4.6v-2H61l2.5-8 2.5 8-1.1.2V17h4.6v-2l-1.1-.2-3.7-11.6h-2.3l-2.5 8-2.5-8H55L51.5 15l-1.2.2V17H55v-2l-1.2-.2 2.5-8 2.5 8z"/><path id="_Compound_Path_" data-name="&lt;Compound Path&gt;" class="cls-1" d="M85 18v-1.4h1a3.6 3.6 0 0 0 3.7-3.3v-2.9A3.6 3.6 0 0 0 86 7h-4.5v2l1 .1v9l-1 .2V20H86v-1.7l-1.2-.2zm0-3.5V9.1h1a1.3 1.3 0 0 1 1.4 1.2v3a1.3 1.3 0 0 1-1.3 1z"/></g><g id="_Group_4" data-name="&lt;Group&gt;"><path id="_Compound_Path_2" data-name="&lt;Compound Path&gt;" class="cls-1" d="M118.6 28.5a2.6 2.6 0 0 0 1-2 2.7 2.7 0 0 0-3-2.7H111v1.7l1 .2v6l-1 .2v1.8h5.8a2.8 2.8 0 0 0 3-2.9 2.7 2.7 0 0 0-1.2-2.3zm-4.1-1.7v-1h2.3a.7.7 0 0 1 .5.5v.7a.7.7 0 0 1-.5.4h-2.3zm3 4a.7.7 0 0 1-.7.8h-2.4v-2.1h2.4a.7.7 0 0 1 .7.7z"/><path id="_Compound_Path_3" data-name="&lt;Compound Path&gt;" class="cls-1" d="M76.4 25.9a.7.7 0 0 0-.7.7v1.3l2.4-.6a.7.7 0 0 0 .6-.7.7.7 0 0 0-.7-.7zm.7 7.8a3.8 3.8 0 0 1-3.8-3.8v-3.3a2.8 2.8 0 0 1 2.8-2.9h2a2.8 2.8 0 0 1 3 2.9 3 3 0 0 1-2.5 2.9l-2.9.7a1.3 1.3 0 0 0 1.4 1.3h3.6v2.2z"/><path id="_Path_16" data-name="&lt;Path&gt;" class="cls-1" d="M86 33.7a3.8 3.8 0 0 1-3.8-3.5v-3.1a3.8 3.8 0 0 1 3.8-3.4h3.6v2.2H86a1.3 1.3 0 0 0-1.4 1.2v3.1a1.3 1.3 0 0 0 1.4 1.3h3.6v2.2H86z"/><g id="_Group_5" data-name="&lt;Group&gt;"><path id="_Path_17" data-name="&lt;Path&gt;" class="cls-1" d="M104.6 33.7a3.8 3.8 0 0 1-3.7-3.4v-3.1a3.8 3.8 0 0 1 3.7-3.4h1.8V26h-1.8a1.3 1.3 0 0 0-1.4 1.2v3.1a1.3 1.3 0 0 0 1.4 1.2h1.8v2.2h-1.8z"/><path id="_Path_18" data-name="&lt;Path&gt;" class="cls-1" d="M106.1 33.7a3.8 3.8 0 0 0 3.8-3.4v-3.1a3.8 3.8 0 0 0-3.8-3.4h-1.7V26h1.7a1.3 1.3 0 0 1 1.4 1.2v3.1a1.3 1.3 0 0 1-1.4 1.2h-1.7v2.2h1.7z"/></g><path id="_Path_19" data-name="&lt;Path&gt;" class="cls-1" d="M94 31.8v-6h-1.5l-.2 1.3h-1.6v-3.4h9v3.4H98l-.2-1.2h-1.4v5.9l1 .2v1.8H93V32z"/><path id="_Path_20" data-name="&lt;Path&gt;" class="cls-1" d="M53.7 29.3l1.6-2 3.3 4.5-1.2.2v1.7h5V32l-1.3-.2-4.6-6.1 3.2-4.4 1.2-.2v-1.7H56v1.7l1.3.2-3.6 4.9v-4.8l1.3-.2v-1.8h-4.7v1.8l1.3.2v10.4l-1.3.2v1.7H55V32l-1.3-.3v-2.4z"/><path id="_Compound_Path_4" data-name="&lt;Compound Path&gt;" class="cls-1" d="M71 28.5a2.6 2.6 0 0 0 1-2 2.7 2.7 0 0 0-3-2.7h-5.6v1.7l1 .2v6l-1 .2v1.8h5.8a2.8 2.8 0 0 0 3-2.9 2.7 2.7 0 0 0-1.2-2.3zm-4.1-1.7v-1h2.3a.7.7 0 0 1 .5.5v.7a.7.7 0 0 1-.5.4h-2.3zm3.1 4a.7.7 0 0 1-.7.8h-2.4v-2.1h2.3a.7.7 0 0 1 .8.7z"/></g></g></svg>
