<svg data-name="Layer 1" xmlns="http://www.w3.org/2000/svg" viewBox="0 0 94 56.4"><path d="M76 17.1a2.8 2.8 0 0 0-2 .8V8.7H48.1v6a5.8 5.8 0 0 1 5.5 5.7c0 3-2.3 6-5.5 6.2V32h25.7v-9a3 3 0 0 0 2 .9 3.3 3.3 0 0 0 3.3-3.3A3.1 3.1 0 0 0 76 17zM58 29.6h-2.6V25H58zM58 16h-2.6v-4.5H58zm5.4 13.6h-2.6V25h2.7v4.5zm0-13.6h-2.6v-4.5h2.7V16zM69 29.6h-2.7V25H69zM69 16h-2.7v-4.5H69z" fill="#d4684e"/><path d="M47.4 17.3a2.8 2.8 0 0 0-2 .8V8.7h-10a3 3 0 0 0 .7-2 3.3 3.3 0 0 0-6.6 0 3.6 3.6 0 0 0 .8 2.1H19.6v8.6a3.4 3.4 0 0 0-2-.5 3.4 3.4 0 0 0-3.5 3.5 3.5 3.5 0 0 0 3.5 3.6 3.6 3.6 0 0 0 2.1-.8V32h25.8v-8.6a3 3 0 0 0 2 .8 3.3 3.3 0 0 0 3.3-3.3 3.5 3.5 0 0 0-3.4-3.6zM25.2 29.5h-2.6v-4.4h2.6zm0-13.5h-2.6v-4.5h2.6zm5.6 13.5h-2.6v-4.4h2.6zm0-13.5h-2.6v-4.5h2.6zm5.4 13.6h-2.6V25h2.6zm0-13.6h-2.6v-4.5h2.6zm5.5 13.6H39V25h2.6zm0-13.6H39v-4.5h2.6z" fill="#f5ca63"/><path d="M5.2 41.8a5.8 5.8 0 0 1 3.2.7A2.6 2.6 0 0 1 9.5 45a2.7 2.7 0 0 1-1.1 2.4 5.8 5.8 0 0 1-3.2.7h-.7v3h-2v-9a12.2 12.2 0 0 1 1.4-.1h1.3zm.2 1.8h-.9v2.6h.7a3.5 3.5 0 0 0 1.6-.2 1.1 1.1 0 0 0 .6-1 1.3 1.3 0 0 0-.2-.7 1 1 0 0 0-.4-.4 1.8 1.8 0 0 0-.6-.2 5.2 5.2 0 0 0-.8-.1zm11.5 7.3a11.3 11.3 0 0 1-1.3.3 10.7 10.7 0 0 1-1.7 0 4 4 0 0 1-1.5-.2 2.2 2.2 0 0 1-1-.7 2.6 2.6 0 0 1-.4-1 5.5 5.5 0 0 1-.2-1.3v-3.9h2v3.7a2.8 2.8 0 0 0 .3 1.4 1 1 0 0 0 1 .4h.8v-5.5h2zm7.1-5.4l-.6.7-1 1-.9 1.1-.8 1.2H24V51h-5.8v-1l.7-1 .8-1.1.9-1 .8-1h-3V44H24zm6.6 0l-.6.7-1 1-.9 1.1-.8 1.2h3.4V51h-5.8v-1l.7-1 .8-1.1.8-1 .8-1h-3V44h5.6zm4.2 5.8a5 5 0 0 1-1.4-.2 2 2 0 0 1-.9-.5 1.6 1.6 0 0 1-.4-.8 4 4 0 0 1-.1-1v-7.7l2-.3v7.6a2.6 2.6 0 0 0 0 .5.8.8 0 0 0 .1.4.8.8 0 0 0 .4.2 1.8 1.8 0 0 0 .5.1zm1.1-3.6a4.3 4.3 0 0 1 .3-1.7 3.5 3.5 0 0 1 .7-1.1 3.1 3.1 0 0 1 1-.7 3.4 3.4 0 0 1 1.3-.2 3 3 0 0 1 2.4 1 3.8 3.8 0 0 1 .8 2.6v.7H38a1.3 1.3 0 0 0 .6 1 2.3 2.3 0 0 0 1.3.4 5.7 5.7 0 0 0 1-.1 4 4 0 0 0 1-.3L42 51a2.7 2.7 0 0 1-.4.1 5.8 5.8 0 0 1-.6.2h-.7a6.6 6.6 0 0 1-.8 0A4.4 4.4 0 0 1 38 51a3.2 3.2 0 0 1-1.1-.8 3 3 0 0 1-.7-1.1 4.5 4.5 0 0 1-.2-1.4zm4.6-.8a2 2 0 0 0 0-.5 1.2 1.2 0 0 0-.7-.7 1.3 1.3 0 0 0-.6-.1 1.3 1.3 0 0 0-.5 0 1.2 1.2 0 0 0-.4.4 1.3 1.3 0 0 0-.3.4 2.8 2.8 0 0 0-.1.5zm9.2-4.9l.6 1 .6 1.4.7 1.5.6 1.5.6-1.5.7-1.5.7-1.4.5-1h1.9l.3 2c0 .7 0 1.5.2 2.3s0 1.6.1 2.4l.1 2.4h-2v-3q0-1.6-.3-3.1l-.5 1.2-.6 1.4-.6 1.3L53 50h-1.5l-.4-1.1-.6-1.3-.5-1.3-.6-1.3-.2 3.2-.1 3h-2l.1-2.4.2-2.5q0-1.2.2-2.3l.2-2zm15.9 5.6a4.5 4.5 0 0 1-.3 1.5 3.3 3.3 0 0 1-.7 1.2 3 3 0 0 1-1 .8 3.9 3.9 0 0 1-2.8 0 3.1 3.1 0 0 1-1.1-.8 3.4 3.4 0 0 1-.7-1.2 4.3 4.3 0 0 1-.3-1.5 4.2 4.2 0 0 1 .3-1.5 3.4 3.4 0 0 1 .7-1.1 3.2 3.2 0 0 1 1-.7 3.5 3.5 0 0 1 1.4-.3 3.5 3.5 0 0 1 1.4.3 3.1 3.1 0 0 1 1.1.7 3.4 3.4 0 0 1 .7 1.2 4.3 4.3 0 0 1 .3 1.4zm-2 0a2.5 2.5 0 0 0-.4-1.4 1.2 1.2 0 0 0-1-.5 1.2 1.2 0 0 0-1 .5 2.5 2.5 0 0 0-.4 1.4 2.5 2.5 0 0 0 .4 1.5 1.2 1.2 0 0 0 1 .5 1.2 1.2 0 0 0 1-.5 2.5 2.5 0 0 0 .3-1.5zm5.2 3.5l-1.4-3q-.7-1.8-1.3-4h2.1l.3 1.1.4 1.3c0 .4.2.8.4 1.2l.4 1 .3-1 .4-1.2.4-1.3.3-1h2L71.8 48q-.7 1.8-1.4 3.1zm7.6-9a1 1 0 0 1-.4.9 1.3 1.3 0 0 1-1.7 0 1.2 1.2 0 0 1 0-1.7 1.3 1.3 0 0 1 1.7 0 1 1 0 0 1 .4.8zm-.2 9h-2v-7h2zm1.5-3.4A4.3 4.3 0 0 1 78 46a3.5 3.5 0 0 1 .8-1.2 3.1 3.1 0 0 1 1-.7 3.4 3.4 0 0 1 1.3-.2 3 3 0 0 1 2.3 1 3.8 3.8 0 0 1 .9 2.6v.7h-4.5a1.3 1.3 0 0 0 .5 1 2.3 2.3 0 0 0 1.4.4 5.7 5.7 0 0 0 1-.1 4 4 0 0 0 .9-.3l.3 1.6a2.7 2.7 0 0 1-.5.2 5.8 5.8 0 0 1-.5.1l-.7.1a6.6 6.6 0 0 1-.8 0 4.4 4.4 0 0 1-1.6-.3 3.2 3.2 0 0 1-1.2-.8 3 3 0 0 1-.7-1.1 4.5 4.5 0 0 1-.2-1.4zm4.7-.8a2 2 0 0 0-.1-.5 1.2 1.2 0 0 0-.6-.7 1.3 1.3 0 0 0-.6-.1 1.3 1.3 0 0 0-.6 0 1.2 1.2 0 0 0-.4.4 1.3 1.3 0 0 0-.2.4 2.8 2.8 0 0 0-.2.5zm5.4 2.8a2 2 0 0 0 .8-.1.4.4 0 0 0 .2-.4.5.5 0 0 0-.3-.4 5.6 5.6 0 0 0-.9-.4 9 9 0 0 1-.8-.4 2.4 2.4 0 0 1-.7-.4 1.8 1.8 0 0 1-.4-.7 2.3 2.3 0 0 1-.1-.8 1.9 1.9 0 0 1 .7-1.6 3.2 3.2 0 0 1 2-.5 6.4 6.4 0 0 1 1.2 0 5.4 5.4 0 0 1 1 .3L90 46a7.3 7.3 0 0 0-.7-.3 4.1 4.1 0 0 0-1 0q-.9 0-.9.5a.5.5 0 0 0 0 .2.4.4 0 0 0 .2.2 2.2 2.2 0 0 0 .3.2l.5.2a8.2 8.2 0 0 1 1.1.4 2.6 2.6 0 0 1 .7.6 1.6 1.6 0 0 1 .3.6 2.7 2.7 0 0 1 .1.7 1.8 1.8 0 0 1-.7 1.6 3.9 3.9 0 0 1-2.2.5 6.2 6.2 0 0 1-2.4-.4l.3-1.6a6.7 6.7 0 0 0 1 .3 5 5 0 0 0 1.1.1z" fill="#454141"/></svg>
