<svg id="Layer_1" data-name="Layer 1" xmlns="http://www.w3.org/2000/svg" viewBox="0 0 92.8 52.6"><defs></defs><g id="Artboard-4"><g id="PuzzleEnglish-logo_vertical_color" data-name="PuzzleEnglish-logo vertical color"><g id="Group-29"><path id="Combined-Shape" fill="#88ba28" d="M29.6 20.9V29a.9.9 0 0 1-.9.8h-7.3a4 4 0 1 1-7.5 0H6.6a.9.9 0 0 1-.8-.8L5.7 7a.9.9 0 0 1 .9-.9h22a.9.9 0 0 1 1 .9v6.4a4 4 0 1 1 0 7.5zM13.8 22H16l.5-1.7H19l.5 1.7h2l-2.8-8.2h-2z"/><path id="Combined-Shape-2" data-name="Combined-Shape" d="M58.7 23.6a6.6 6.6 0 0 0 0-13V6.9a.9.9 0 0 1 .9-.9h22a.9.9 0 0 1 1 .9v6.4a4 4 0 1 1 0 7.5V29a.9.9 0 0 1-1 .8h-7.2a4 4 0 1 1-7.5 0h-7.3a.9.9 0 0 1-.9-.8zm8.7-5.8a4 4 0 0 0 4.3 4.2 4.5 4.5 0 0 0 3.3-1.3l-1-1.5a3.2 3.2 0 0 1-2.2 1 2.3 2.3 0 0 1-2.3-2.5 2.2 2.2 0 0 1 2.3-2.3 3.4 3.4 0 0 1 2 .8l1-1.5a4.4 4.4 0 0 0-3-1.1 4.1 4.1 0 0 0-4.4 4.2z" fill="#e34034"/><path id="Combined-Shape-3" data-name="Combined-Shape" fill="#f2ad29" d="M40.4 6a4 4 0 1 1 7.5 0h7.3a.9.9 0 0 1 .8 1v6.4a4 4 0 1 1 0 7.5V29a.9.9 0 0 1-.8 1H33a.9.9 0 0 1-.9-1v-5.4a6.6 6.6 0 0 0 0-13V7a.9.9 0 0 1 .9-.9zm1.8 16h3c1.6 0 3.1-.7 3.1-2.5a1.8 1.8 0 0 0-1.3-1.8 2 2 0 0 0 1-1.8c0-1.4-1.1-2.1-2.8-2.1h-3z"/><path id="A-Copy-2" fill="#88ba28" d="M16.9 18.7h1.6L18 17l-.3-1.4-.4 1.4z"/><path id="B-Copy-2" fill="#f2ad29" d="M44.2 17h1a.7.7 0 0 0 .7-.8.7.7 0 0 0-.7-.7h-1zm0 3.2h1.2a.8.8 0 0 0 .9-.8.8.8 0 0 0-.9-.9h-1.2z"/></g><g id="Group-17-Copy"><path id="Puzzle-English" d="M5.8 49v-8.5h3.5a3 3 0 0 1 0 5.9H7.8V49zm2-4.4h1a1 1 0 0 0 1.1-1.2 1 1 0 0 0-1-1H8zM13 47v-4h2v3.6c0 .6.2.8.7.8.8 0 1.2-.8 1.2-1.7V43h2v6h-2v-.5a3.2 3.2 0 0 1 0-.4 2.1 2.1 0 0 1-1.9 1c-1 0-2-.5-2-2.2zm7.2 2.1v-1l2.2-2.8a3.9 3.9 0 0 1 .6-.6 4 4 0 0 1-.6 0h-2.1V43h5.4v1l-2.2 2.8a3.6 3.6 0 0 1-.5.6 2.8 2.8 0 0 1 .5 0h2.3V49zm6.5 0v-1l2.2-2.8a3.9 3.9 0 0 1 .6-.6 4 4 0 0 1-.6 0h-2.1V43h5.4v1L30 46.7a3.6 3.6 0 0 1-.5.6 2.8 2.8 0 0 1 .5 0h2.3V49zm6.8-2.3v-6.2h2v6c0 .5 0 .7.6.7h.2V49h-.6c-1 0-2.2-.2-2.2-2.3zM37 46a3 3 0 0 1 3.2-3.2 2.7 2.7 0 0 1 2.8 3 5.8 5.8 0 0 1 0 .6h-3.9a1.4 1.4 0 0 0 1.4 1.1 3.1 3.1 0 0 0 1.7-.6l.8 1.4a4.2 4.2 0 0 1-2.6 1A3.2 3.2 0 0 1 37 46zm2.1-.7H41a.8.8 0 0 0-.8-1 1 1 0 0 0-1 1zm8.1 3.8v-8.5h5.3v1.8h-3.2V44H52v1.7h-2.6v1.6h3.4V49zm6.7 0V43h2v.5a3.2 3.2 0 0 1 0 .4 2.1 2.1 0 0 1 2-1A2 2 0 0 1 60 45v4h-2v-3.6c0-.6-.2-.8-.7-.8-.9 0-1.3.7-1.3 1.6v2.7zm8.3.4a4 4 0 0 0 1.7.4c.8 0 1.4-.3 1.4-1.2v-.4a1.8 1.8 0 0 1-1.5.6 2.8 2.8 0 0 1-2.7-3 2.7 2.7 0 0 1 2.7-3 2.4 2.4 0 0 1 1.7.5 1 1 0 0 1 0-.1V43h1.9v5.5c0 2.2-1.8 3-3.5 3a5.4 5.4 0 0 1-2.3-.5zm1-3.7c0 .7.3 1.4 1 1.4.6 0 1.2-.3 1.2-1.3s-.6-1.4-1.2-1.4a1 1 0 0 0-1 1.2zm5.6 1v-6.2h2v5.9c0 .6.1.8.6.8h.2V49H71c-1 .1-2.2-.2-2.2-2.2zm4-4.6v-1.6h2v1.6zm0 6.9v-6.2h2V49zm3-.8l.8-1.3a2.7 2.7 0 0 0 1.7.6c.4 0 .5-.2.5-.4 0-.6-2.8-.5-2.8-2.5 0-1.2 1-1.9 2.5-1.9a3.4 3.4 0 0 1 2.2.7l-.7 1.4a2.8 2.8 0 0 0-1.5-.5c-.5 0-.6.1-.6.3 0 .6 2.8.5 2.8 2.5 0 1.1-.9 2-2.5 2a3.8 3.8 0 0 1-2.5-1zm6 .7v-8.4h2v3.2a2 2 0 0 1 1.9-1 2 2 0 0 1 2.2 2.3v4h-2v-3.7c0-.5-.3-.8-.7-.8-.9 0-1.3.7-1.3 1.7V49z" fill="#5c5c5c"/></g></g></g></svg>
