<svg data-name="Layer 1" xmlns="http://www.w3.org/2000/svg" viewBox="0 0 76 70.7"><defs><linearGradient id="a" x1="1416.3" y1="-1599.1" x2="1416.3" y2="-1599.3" gradientTransform="matrix(48.55 0 0 -31.6 -68714 -50501)" gradientUnits="userSpaceOnUse"><stop offset="0" stop-color="#fff"/><stop offset="1" stop-color="#fff" stop-opacity="0"/></linearGradient></defs><g data-name="Icons/Disk/Color-40"><path d="M47.5 9a15.6 15.6 0 0 1-5-1.2 16.4 16.4 0 0 0-19.4 8c-1 2.2-2 4.6-3.3 6l-.2.3c-4.5 4.7-6.4 9.5-5 12.5 3.2 6.7 49.7-15.2 46.5-21.9-1.3-2.6-6.7-4.3-13.6-3.8z"/><path d="M43.1 34.4c12.9-6 20.6-16.8 18.5-21.1S46.9 9.7 34 15.7 13 31 15 35.4s15.2 5.2 28.1-1z" fill="#07f"/><path d="M42.8 32.4c6-2.8 10.2-6.8 9.2-9s-6.7-1.3-12.8 1.5S29 32 30 34s6.7 1.4 12.8-1.5z"/><path data-name="path-1" d="M42.8 32.4c6-2.8 10.2-6.8 9.2-9s-6.7-1.3-12.8 1.5S29 32 30 34s6.7 1.4 12.8-1.5z" fill="#fff"/><path opacity=".4" fill="url(#a)" d="M30 34l.2 7.7 17-1 11.2-11.1-6.6-6.3L30 33.9z" style="isolation:isolate"/></g><path d="M24.6 62.4v3h-1.3v-1.8h-3.9v1.8h-1.3v-3h.6c.8-2 1-4.8 1-7.2v-.8h4.2v8zm6.2.5a3.6 3.6 0 0 1-2.3.8c-1.9 0-3-1.5-3-4.4s.8-5 2.7-5c1.5 0 2.5 1.1 2.5 4.2v.8H27c0 2 .6 3.2 1.7 3.2a3.2 3.2 0 0 0 1.8-.7zm-14.9-8.5h1.4v9.2H16v-4.2h-2v4.1h-1.5v-9.1h1.4v3.9H16zM36 63.5L33.6 59v4.6h-1.4v-9.2h1.4v4.2l2.2-4.2h1.4L35 58.7l2.6 4.8zm4.9.2c-2 0-3.2-1.6-3.2-4.7 0-3 1.1-4.7 3.3-4.7a2.9 2.9 0 0 1 1.7.4l-.2 1.4a2.4 2.4 0 0 0-1.5-.7c-1 0-1.7 1.2-1.7 3.5s.5 3.6 1.7 3.6a2.3 2.3 0 0 0 1.5-.6l.3 1.1a2.8 2.8 0 0 1-2 .7zm-18.4-1.3v-6.9h-1.6v.2a20.3 20.3 0 0 1-.9 6.7zm5.7-7c-.9 0-1.2 1-1.3 2.7h2.4c0-1.5-.3-2.7-1-2.7zm23.3 7.4V51.3h-2.9c0 3.3-.1 5.8-.3 7.7s-.4 3.2-.9 3.8zm1 3v-2.3h-5.6l-.2 2.2H46v-2.9h.4c.6-.5 1-2 1.1-3.8l.3-8.5h4.5v12.3h1v3zm6.3-2.3v-7.6a8.2 8.2 0 0 1-.4 1.2l-3 6.4h-.8v-9.1h.8V62a10 10 0 0 1 .5-1.2l3-6.4h.7v9.2zm5.5-.5a2.3 2.3 0 0 0 1.8-1l.2.7a2.6 2.6 0 0 1-2 1c-1.9 0-3-1.8-3-4.7s1-4.8 3-4.8a2.5 2.5 0 0 1 2 .8l-.3 1a2.2 2.2 0 0 0-1.8-1c-1.4 0-2 1.5-2 4s.6 4 2 4zm4.3-4.2v4.8h-.9v-9.2h.9v4.3l3-4.3h.9l-3 4.2 3.2 5h-1z"/><path d="M8.4 50.5a3.7 3.7 0 0 0-3.8 4.1 3.5 3.5 0 0 0 2 3.5L4 63.4h1.6l2.2-5H9v5h1.4V50.5zm.7 6.8h-.8c-1.2 0-2.2-.6-2.2-2.7s1.1-2.9 2.2-2.9h.8z" fill="red"/></svg>
