<svg id="Layer_1" data-name="Layer 1" xmlns="http://www.w3.org/2000/svg" viewBox="0 0 132.4 26.5"><defs><style>.cls-1,.cls-2{fill:none}.cls-1{clip-rule:evenodd}</style><clipPath id="clip-path"><path class="cls-1" d="M-753 97a3.2 3.2 0 0 0 3.6-2.8v-.5l6.4 2.6-3.5 8.4-6.3-2.6a4.8 4.8 0 0 0 1.2-1.7l1.2-3a2.7 2.7 0 0 1-1.7 0 2.4 2.4 0 0 1-1-.4z"/></clipPath><clipPath id="clip-path-2"><path class="cls-1" d="M-699.2 111.2l40.3-.2v13l-40.3.2v-13z"/></clipPath><clipPath id="clip-path-3"><path class="cls-1" d="M-659 86.4a5 5 0 0 0-4.8-4.2h-10.7c2.7 0 3.3 2.3 3.3 5V103l.4-.1a28.4 28.4 0 0 0 12-7.4v-9h-.2z"/></clipPath><clipPath id="clip-path-4"><path class="cls-1" d="M-687.3 82.2h-7a5 5 0 0 0-4.8 4.2h-.1V96a28.4 28.4 0 0 0 12 7l.4.1V87.2c0-2.8.5-5 3.3-5h-3.8z"/></clipPath><clipPath id="clip-path-5"><path class="cls-1" d="M-679.1 116.6h-20.1v-21h12.4l7.7 21z"/></clipPath><clipPath id="clip-path-6"><path class="cls-1" d="M-658.9 116.6h-20l4.6-21h15.4v21z"/></clipPath><clipPath id="clip-path-7"><path class="cls-1" d="M-679.2 75.9a6.3 6.3 0 0 0-3 .8h6a5.8 5.8 0 0 0-3-.8"/></clipPath><clipPath id="clip-path-8"><path class="cls-1" d="M-677.5 78h-4.3l-2.1-.8v6.5c0 2.4 2.3 4.3 4.7 4.3s4.7-1.9 4.7-4.3v-6.4z"/></clipPath><clipPath id="clip-path-9"><path class="cls-1" d="M-685.3 31a5 5 0 0 0-2.3.5 5.2 5.2 0 0 1 3 4.7h4.5a5.3 5.3 0 0 0-5.2-5.2"/></clipPath><clipPath id="clip-path-10"><path class="cls-1" d="M-674.8 28.7a5.3 5.3 0 0 1 2.7.7 6.3 6.3 0 0 0-3.6 5.7h-5.4a6.3 6.3 0 0 1 6.3-6.3"/></clipPath><clipPath id="clip-path-11"><path class="cls-2" d="M-795.1 20.9h245.8v104.7h-245.8z"/></clipPath><clipPath id="clip-path-12"><path class="cls-2" d="M-173.2 83.9h22v22h-22z"/></clipPath><clipPath id="clip-path-13"><path class="cls-2" d="M-1196.2 27.9h31v31h-31z"/></clipPath></defs><circle cx="10.1" cy="15.5" r="10.1" fill="#fc0"/><path d="M15.5 5.3v10A5.8 5.8 0 0 1 15 18a5.4 5.4 0 1 1-.7-6 3.7 3.7 0 0 1 .7 1.2 5.2 5.2 0 0 1-.2-.8V0l7 2.7v5z" fill="#f33"/><path d="M34.2 7.6h-1c-1.3 0-2.7 1-2.7 3.7s1.3 3.5 2.8 3.5h1zm-1.4 8.7L30 22.6h-2l3-6.8c-1.4-.7-2.4-2-2.4-4.5 0-3.5 2.2-5.2 4.8-5.2H36v16.5h-1.8v-6.3z" fill="#fe3837"/><path d="M70.4 16.9c0-3.7 1.4-6 4.2-6a3.7 3.7 0 0 1 2.1.6l-.2 1.7a3 3 0 0 0-2-.8c-1.2 0-2.1 1.5-2.1 4.4s.6 4.6 2.1 4.6a3 3 0 0 0 2-.7l.4 1.3a3.5 3.5 0 0 1-2.5.9c-2.5 0-4-2-4-6zm-5.2 0v5.8h-1.8V11h1.8v5.4L68 11h1.8l-2.9 5.5 3.3 6.3h-2zm-8.5-1.1h3c0-2-.4-3.5-1.4-3.5s-1.5 1.4-1.6 3.5zm2 7.1c-2.5 0-4-2-4-5.5 0-3.8 1-6.6 3.6-6.6 2 0 3.2 1.5 3.2 5.5v1h-4.9c0 2.6.8 4 2.2 4a4 4 0 0 0 2.3-.8l.4 1.5a4.6 4.6 0 0 1-2.8 1zM51 12.5h-2v.2c0 2.5-.1 6-1 8.6h3zM53.7 25h-1.6v-2.3h-5V25h-1.7v-3.8h.8c1-2.5 1.1-6.2 1.1-9.3v-1h5.5v10.3h.9zm-9.3-14v11.8h-1.8v-5.3H40v5.2h-1.8V11H40v5h2.7v-5zm49.2 15.4l-.1-1a2.8 2.8 0 0 0 .7.1c.8 0 1.3-.7 1.7-2V23l-2.7-12h1l1.9 7.7a25.4 25.4 0 0 1 .5 2.6l.6-2.6L99 11h1l-3 12.3c-.4 1.6-1 3.2-2.7 3.2a4 4 0 0 1-.7 0zm7.2-4.7l.4-1a3 3 0 0 0 2.4 1.3c1.2 0 2.2-.9 2.2-2.6a2.2 2.2 0 0 0-2.5-2.4h-1v-.9h.9a2.2 2.2 0 0 0 2.3-2.4 1.7 1.7 0 0 0-1.8-2 2.8 2.8 0 0 0-2.3 1.3l-.3-1a3.2 3.2 0 0 1 2.6-1.2 2.6 2.6 0 0 1 2.8 2.9 3 3 0 0 1-1.7 2.8 3 3 0 0 1 2 3 3.2 3.2 0 0 1-3.2 3.5 3.5 3.5 0 0 1-2.8-1.3zm14.7 1V11h1v11.8zM108.7 11h1v4.3h.9a3.3 3.3 0 0 1 3.7 3.7 3.4 3.4 0 0 1-3.8 3.7h-1.8zm1 5.2V22h.7a2.5 2.5 0 0 0 2.8-2.9c0-2-1-2.8-2.6-2.8zm10.3 6.6h-1V11h1v5.5l4-5.5h1l-3.8 5.5 4 6.2h-1.1l-4.1-6zm11.1-1.6a2.8 2.8 0 0 1-2.5 1.8c-1.6 0-2.7-1.3-2.7-3.4 0-2.5 1.4-3.8 4-3.8h1.2v-1.5c0-1.8-.7-2.6-2-2.6a3 3 0 0 0-2.4 1.3l-.3-1a3.5 3.5 0 0 1 2.7-1.2c2 0 3 1 3 3.4v6.4a8.6 8.6 0 0 0 .3 2.2h-1a7 7 0 0 1-.3-1.6zm0-1.4v-3.2H130c-2 0-2.9.8-2.9 2.9 0 1.6.8 2.6 1.9 2.6s1.8-1 2.2-2.3zm-47-8.5l-.5-2.4h-.1v14.2h-1V6.4H84L86.7 17a16.3 16.3 0 0 1 .4 2l.4-2 2.9-10.6h1.3V23h-1.1V8.9l-.6 2.3-2.5 9.3h-.9z" fill="#1d1c1b"/></svg>
