<svg id="Layer_1" data-name="Layer 1" xmlns="http://www.w3.org/2000/svg" xmlns:xlink="http://www.w3.org/1999/xlink" viewBox="0 0 74 51.1">
  <defs>
    <linearGradient id="linear-gradient" x1="364.3" y1="-4063.7" x2="455.9" y2="-4063.7" gradientTransform="rotate(-90 2253.8 -1827.2)" gradientUnits="userSpaceOnUse">
      <stop offset="0" stop-color="#fe7c43"/>
      <stop offset="1" stop-color="#e40246"/>
    </linearGradient>
    <linearGradient id="linear-gradient-2" x1="364.3" y1="-4022.7" x2="455.9" y2="-4022.7" xlink:href="#linear-gradient"/>
    <linearGradient id="linear-gradient-3" x1="364.3" y1="-4024.6" x2="455.9" y2="-4024.6" xlink:href="#linear-gradient"/>
    <linearGradient id="linear-gradient-4" x1="364.3" y1="-4023.6" x2="455.9" y2="-4023.6" xlink:href="#linear-gradient"/>
    <linearGradient id="linear-gradient-5" x1="364.3" y1="-4056.3" x2="455.9" y2="-4056.3" xlink:href="#linear-gradient"/>
    <linearGradient id="linear-gradient-6" x1="364.3" y1="-4039.6" x2="455.9" y2="-4039.6" xlink:href="#linear-gradient"/>
    <linearGradient id="linear-gradient-7" x1="364.3" y1="-4061.2" x2="455.9" y2="-4061.2" xlink:href="#linear-gradient"/>
  </defs>
<path d="M18.5 34.3a1 1 0 0 0-.2-1c-.3-.4-1.5-.4-2.1-.1 0 .9 1.7 2.1 2.3 1.1z" fill="url(#linear-gradient)"/><path d="M58.2 41.2c-.9-.5-.9 1.2.9 1.5a1.8 1.8 0 0 0-1-1.5z" fill="url(#linear-gradient-2)"/><path fill="#f65245" d="M63 35c2-2 3.2-6.2.6-8-2.3-1.7-9.6-.3-13 7.8a5.2 5.2 0 0 1-1-3.8c.4-2.6 1.7-3.9 1.4-4.5-.8-1.3-2.3 1.4-2.6 2a6.5 6.5 0 0 0 1.7 7.8v.2c-1.2 3.8-1.8 8.9 2.2 12.4s10.9 0 10-5.8a5 5 0 0 0 2.1-1.7v-.2a12.4 12.4 0 0 1-2.1 1.2c-.6-2.2-3-4-5-2.8-1.8 1-.3 3.6 2 4 0 2.7-1.2 6.8-4 4.8C52 46 53 41.3 54 38a12.3 12.3 0 0 0 9-3zm-.8-7c1.2.4-1 9.7-8 8.9 1.3-3.1 5.1-9.9 8-9zm-4 13.3a1.8 1.8 0 0 1 .9 1.5c-1.8-.4-1.8-2-1-1.6z"/><path d="M63 35c2-2 3.2-6.2.6-8-2.3-1.7-9.6-.3-13 7.8a5.2 5.2 0 0 1-1-3.8c.4-2.6 1.7-3.9 1.4-4.5-.8-1.3-2.3 1.4-2.6 2a6.5 6.5 0 0 0 1.7 7.8v.2c-1.2 3.8-1.8 8.9 2.2 12.4s10.9 0 10-5.8a5 5 0 0 0 2.1-1.7v-.2a12.4 12.4 0 0 1-2.1 1.2c-.6-2.2-3-4-5-2.8-1.8 1-.3 3.6 2 4 0 2.7-1.2 6.8-4 4.8C52 46 53 41.3 54 38a12.3 12.3 0 0 0 9-3zm-.8-7c1.2.4-1 9.7-8 8.9 1.3-3.1 5.1-9.9 8-9zm-4 13.3a1.8 1.8 0 0 1 .9 1.5c-1.8-.4-1.8-2-1-1.6z" fill="url(#linear-gradient-3)"/><path fill="#f65245" d="M69.6 24.7c-1.6-2.7.2-8.4-.1-9.3-.3-.5-3-1.7-3.6-1.2-.4.2-.5 2.1-.6 2.8-.4 1.7-1.7 5.5-3.3 5.7-2.3.3.2-8.3-1.1-9.2-.3-.2-2.5-1.6-3-1a27.9 27.9 0 0 0-.7 6.7c-3.2 4.3-7 1.3-8.9-2.3a6.3 6.3 0 0 1 7.8-3.3h.2c1.1-3-1.8-4.7-4-4C49 11 46.5 16 45 19.2c.2-2.3.5-5.1.2-6.2-.4-.8-3-2-3.8-1.8a76.5 76.5 0 0 1-.5 11.8 2.2 2.2 0 0 0 .8.7c3.6 1.3 4.3-4.4 5-4.4.7 3.7 3.8 7.6 8.6 5.5a5.6 5.6 0 0 0 2.2-2.2 3.7 3.7 0 0 0 1.3 2c2.1 1.5 5-1 6.1-3.5.2 2 .4 4.4 2.4 5.5a5.2 5.2 0 0 0 6.5-2v-.2c-.7.5-3.2 2.1-4.3.4z"/><path d="M69.6 24.7c-1.6-2.7.2-8.4-.1-9.3-.3-.5-3-1.7-3.6-1.2-.4.2-.5 2.1-.6 2.8-.4 1.7-1.7 5.5-3.3 5.7-2.3.3.2-8.3-1.1-9.2-.3-.2-2.5-1.6-3-1a27.9 27.9 0 0 0-.7 6.7c-3.2 4.3-7 1.3-8.9-2.3a6.3 6.3 0 0 1 7.8-3.3h.2c1.1-3-1.8-4.7-4-4C49 11 46.5 16 45 19.2c.2-2.3.5-5.1.2-6.2-.4-.8-3-2-3.8-1.8a76.5 76.5 0 0 1-.5 11.8 2.2 2.2 0 0 0 .8.7c3.6 1.3 4.3-4.4 5-4.4.7 3.7 3.8 7.6 8.6 5.5a5.6 5.6 0 0 0 2.2-2.2 3.7 3.7 0 0 0 1.3 2c2.1 1.5 5-1 6.1-3.5.2 2 .4 4.4 2.4 5.5a5.2 5.2 0 0 0 6.5-2v-.2c-.7.5-3.2 2.1-4.3.4z" fill="url(#linear-gradient-4)"/><path fill="#f65245" d="M41.8 46.2a2 2 0 0 0-.4.4c-2.1 2.3-5.3 1.7-7-1.1-2-3.6-.6-8-1.6-10.4-.2-.4-4.7-2.6-5.2-2.2-1.8 1.3-1.3 10.5-4 12.6-2.2 1.2-3.4-1.7-2.3-3.2a2.3 2.3 0 0 0-1 0 2.4 2.4 0 0 0-1.9 1.7 3 3 0 0 1-.8.2c-7.4 1-7.3-9.5-2.4-10.7a2.6 2.6 0 0 0 3.4 2.2c1-.3 1.1-1.7.6-2.7s-2-1.4-3.3-1.3a6.2 6.2 0 0 1 1.6-3.7l-.3-.2a6.7 6.7 0 0 0-2 4c-5.8.5-8.8 5.6-7.4 10 1.4 4.4 6.2 5.2 9.8 4a3.9 3.9 0 0 0 .8-.3v.1c.6 2.5 3.7 2.8 5.6 1 3.4-3.2 3-11.8 4.3-12.6 0 6.7.5 11.9 4.7 14.6 2.8 1.8 7.3 1.2 9-1.7a1.6 1.6 0 0 0 .2-.5.3.3 0 0 0-.4-.2zm-23.5-13a1 1 0 0 1 .2 1.1c-.6 1-2.3-.2-2.3-1.1.6-.3 1.8-.3 2 0z"/><path d="M41.8 46.2a2 2 0 0 0-.4.4c-2.1 2.3-5.3 1.7-7-1.1-2-3.6-.6-8-1.6-10.4-.2-.4-4.7-2.6-5.2-2.2-1.8 1.3-1.3 10.5-4 12.6-2.2 1.2-3.4-1.7-2.3-3.2a2.3 2.3 0 0 0-1 0 2.4 2.4 0 0 0-1.9 1.7 3 3 0 0 1-.8.2c-7.4 1-7.3-9.5-2.4-10.7a2.6 2.6 0 0 0 3.4 2.2c1-.3 1.1-1.7.6-2.7s-2-1.4-3.3-1.3a6.2 6.2 0 0 1 1.6-3.7l-.3-.2a6.7 6.7 0 0 0-2 4c-5.8.5-8.8 5.6-7.4 10 1.4 4.4 6.2 5.2 9.8 4a3.9 3.9 0 0 0 .8-.3v.1c.6 2.5 3.7 2.8 5.6 1 3.4-3.2 3-11.8 4.3-12.6 0 6.7.5 11.9 4.7 14.6 2.8 1.8 7.3 1.2 9-1.7a1.6 1.6 0 0 0 .2-.5.3.3 0 0 0-.4-.2zm-23.5-13a1 1 0 0 1 .2 1.1c-.6 1-2.3-.2-2.3-1.1.6-.3 1.8-.3 2 0z" fill="url(#linear-gradient-5)"/><path fill="#f65245" d="M44.8 32.2c-.2 0-.3.1-.4.3C47.8 35 47.2 44 42 43c-3.5-1-2.6-7-.7-9a21.2 21.2 0 0 1 2.1-2 .6.6 0 0 0-.1-.8c-2.8-1-5.4.2-7 2.8-2.1 3.6-1.3 10 4.2 11 5 1 8.2-5.2 6.7-9.8-.3-.7-1.6-2.9-2.5-3z"/><path d="M44.8 32.2c-.2 0-.3.1-.4.3C47.8 35 47.2 44 42 43c-3.5-1-2.6-7-.7-9a21.2 21.2 0 0 1 2.1-2 .6.6 0 0 0-.1-.8c-2.8-1-5.4.2-7 2.8-2.1 3.6-1.3 10 4.2 11 5 1 8.2-5.2 6.7-9.8-.3-.7-1.6-2.9-2.5-3z" fill="url(#linear-gradient-6)"/><path fill="#f65245" d="M12.9 25.5c1-4.2-2.1-7.1-2.1-7.2l1.6-.9a8.9 8.9 0 0 0 3 5.4c4 3.5 10.8 0 10-5.8l-.1-1.2a10.3 10.3 0 0 0 2-1.7c-.6 3.5-.4 8.3 2.8 8.8 3.4.6 4.5-2.7 4.8-3.3 0 1.3-.4 5.3-.8 5.8-3.8-2-8.5 1-6.7 4.4 1.1 2.3 3.6 2.1 5.8 1.2a7.8 7.8 0 0 0 3.6-3.2 10 10 0 0 1 1.6 1.4h.3a13.7 13.7 0 0 0-1.5-2.2c2-4 2.5-9.3 2.3-13.8a11.4 11.4 0 0 0-3-1.7 1.5 1.5 0 0 0-1 .2 30.2 30.2 0 0 1-.4 3.5c-.7 2.2-1.3 4.6-2.8 5.9-3.3.6-.7-8.3-1.3-9.2s-1.5-1.2-2.7-1.5l-1 1.4a12.7 12.7 0 0 1-6 3 3.5 3.5 0 0 1-1.9 0l-.3.4c.3 1 2 1.5 3 1.5.4 2.6-.7 7.9-3.9 5.6-2.2-1.6-2.3-4.4-2-7.1 4.9-3.1 7.7-4.5 11-9.5 3-4.3-.7-8.3-6.8-5.6-4.2 1.9-8.1 8.1-8.1 16.4L10 17.8a12.6 12.6 0 0 0-1.5-.8c2-2.5 1.5-5.5-1-6.5-2.6-1.1-5 .1-6.6 2-.7 1-1 3.9.5 4A1.4 1.4 0 0 0 2.8 15c-.2-1.4-.7-2.1.5-2.9 2.8-1.5 4.6 2.5 2.9 4.3-.4.6-1.1.5-1.7.9a.8.8 0 0 0 .3.9c.9 0 2.4.4 2.9 1.2a18.3 18.3 0 0 0-7.1 6.5c-1.3 2.5-.1 5 1.9 5.7 4.8 1.6 9.3-2 10.4-6zm16.5 3.8a1.9 1.9 0 0 1-.1-2.9 4.3 4.3 0 0 1 4.6-.1c-.6 1-2.6 4.3-4.5 3zm-7.1-28c3.1-2 4.2.1 2.2 4.2a25 25 0 0 1-8 8.5c2.2-8.6 4.2-11.6 5.8-12.6zM5.5 29.1c-.7.3-2.2.7-2.9 0C-.7 26.4 6.3 21 8.1 20c2 2.5 0 7.6-2.6 9.2z"/><path d="M12.9 25.5c1-4.2-2.1-7.1-2.1-7.2l1.6-.9a8.9 8.9 0 0 0 3 5.4c4 3.5 10.8 0 10-5.8l-.1-1.2a10.3 10.3 0 0 0 2-1.7c-.6 3.5-.4 8.3 2.8 8.8 3.4.6 4.5-2.7 4.8-3.3 0 1.3-.4 5.3-.8 5.8-3.8-2-8.5 1-6.7 4.4 1.1 2.3 3.6 2.1 5.8 1.2a7.8 7.8 0 0 0 3.6-3.2 10 10 0 0 1 1.6 1.4h.3a13.7 13.7 0 0 0-1.5-2.2c2-4 2.5-9.3 2.3-13.8a11.4 11.4 0 0 0-3-1.7 1.5 1.5 0 0 0-1 .2 30.2 30.2 0 0 1-.4 3.5c-.7 2.2-1.3 4.6-2.8 5.9-3.3.6-.7-8.3-1.3-9.2s-1.5-1.2-2.7-1.5l-1 1.4a12.7 12.7 0 0 1-6 3 3.5 3.5 0 0 1-1.9 0l-.3.4c.3 1 2 1.5 3 1.5.4 2.6-.7 7.9-3.9 5.6-2.2-1.6-2.3-4.4-2-7.1 4.9-3.1 7.7-4.5 11-9.5 3-4.3-.7-8.3-6.8-5.6-4.2 1.9-8.1 8.1-8.1 16.4L10 17.8a12.6 12.6 0 0 0-1.5-.8c2-2.5 1.5-5.5-1-6.5-2.6-1.1-5 .1-6.6 2-.7 1-1 3.9.5 4A1.4 1.4 0 0 0 2.8 15c-.2-1.4-.7-2.1.5-2.9 2.8-1.5 4.6 2.5 2.9 4.3-.4.6-1.1.5-1.7.9a.8.8 0 0 0 .3.9c.9 0 2.4.4 2.9 1.2a18.3 18.3 0 0 0-7.1 6.5c-1.3 2.5-.1 5 1.9 5.7 4.8 1.6 9.3-2 10.4-6zm16.5 3.8a1.9 1.9 0 0 1-.1-2.9 4.3 4.3 0 0 1 4.6-.1c-.6 1-2.6 4.3-4.5 3zm-7.1-28c3.1-2 4.2.1 2.2 4.2a25 25 0 0 1-8 8.5c2.2-8.6 4.2-11.6 5.8-12.6zM5.5 29.1c-.7.3-2.2.7-2.9 0C-.7 26.4 6.3 21 8.1 20c2 2.5 0 7.6-2.6 9.2z" fill="url(#linear-gradient-7)"/></svg>
